# xmcd
#
# Track frame offsets:
#	150
#	17325
#	30412
#	46800
#	58087
#	75300
#	91950
#	105112
#	121237
#	141225
#	155325
#	171187
#	197325
#	207600
#	228150
#	237562
#	256087
#	274610
#	290660
#
# Disc length: 4242 seconds
# Revision: 0
# Processed by: cddbd v1.5.2PL0 Copyright (c) Steve Scherf et al.
# Submitted via: dBpowerAMP V12.0
#
DISCID=ef109013
DTITLE=Norman Blake - Old Ties
DYEAR=2002
DGENRE=Country
TTITLE0=Spanish Fandango
TTITLE1=Church St. Blues
TTITLE2=Sleepy Eyed Joe • Indian Creek
TTITLE3=O'Malley's Tune
TTITLE4=Fifty Miles Of Elbow Room
TTITLE5=Down Home Summertime Blues
TTITLE6=Blind Dog
TTITLE7=Fiddler's Dram • Whiskey Before Breakfast
TTITLE8=Old Ties
TTITLE9=Lost Indian
TTITLE10=Ginseng Sullivan
TTITLE11=OBC #3
TTITLE12=Prettiest Little Girl In The Country
TTITLE13=Uncle
TTITLE14=Bristol In The Bottle
TTITLE15=Billy Gray
TTITLE16=The Fields Of November
TTITLE17=Gonna Lay Down My Old Guitar
TTITLE18=Randall Collins • Done Gone
EXTD=
EXTT0=
EXTT1=
EXTT2=
EXTT3=
EXTT4=
EXTT5=
EXTT6=
EXTT7=
EXTT8=
EXTT9=
EXTT10=
EXTT11=
EXTT12=
EXTT13=
EXTT14=
EXTT15=
EXTT16=
EXTT17=
EXTT18=
PLAYORDER=
